<svg id="Layer_1" data-name="Layer 1" xmlns="http://www.w3.org/2000/svg" viewBox="0 0 72 72"><title>TX_black_outline</title><path d="M36,2.7H19.9V31.2H1.6v1.4l1,1.1,1.1,1c.4.4,1.1,1,1.9,1.9l.7.8A6.4,6.4,0,0,0,8.2,39c1,.4,1.3,0,1.8.4s.3.5.7,2,.3,1.5.4,1.8a7.3,7.3,0,0,0,.9,2.2,6.8,6.8,0,0,0,2.6,2.2c1.4.8,1.7.5,2.8,1.3a4.1,4.1,0,0,0,1.4.8,2,2,0,0,0,1.6-.9c.4-.6.1-.8.5-1.9a3.2,3.2,0,0,1,.9-1.6,2.8,2.8,0,0,1,1.3-.4,7,7,0,0,1,2.6-.1l1.4.3,1.6.2c.5.2.7.5,1.3,1.1s1.1.9,1.8,1.7a8.7,8.7,0,0,1,2.3,4.1,3.8,3.8,0,0,1,.1,1.8,15.6,15.6,0,0,0,1.3,1.3,1.7,1.7,0,0,1,.7.8c.2.4,0,.6.2.9s.2.2.7.5l.9.5a2.1,2.1,0,0,1,.4,1.3c-.1.4-.2.4-.2.8a3.3,3.3,0,0,0,.4,1.3,2,2,0,0,0,.6.7c.2.2.4.2.6.5s.2.3.2.5a5.8,5.8,0,0,1,.2,1,1.7,1.7,0,0,0,.6.9c.5.3,1.1-.1,1.5.3s.1.3.4.5.7.4,1.3.6a8.9,8.9,0,0,1,1.3.5,11.5,11.5,0,0,0,1.8.1A5,5,0,0,1,49,68l.9-.8a4.4,4.4,0,0,0-.2-1.8,15,15,0,0,1-.9-1.8,3.5,3.5,0,0,1-.3-1.2,11.4,11.4,0,0,1,.6-1.5c.2-.5.4-.7.3-.8s-.9-.2-1-.4.2-.2.8-.8.8-.6.8-.8-.1-.3-.4-.8-.6-.9-.5-1.1.7.2,1.4.1A1.9,1.9,0,0,0,52,55.1c.2-.5,0-.6.2-1.3a1.7,1.7,0,0,1,.8-1.1c.4-.2.7.1,1.3-.1s.5-.2,1.3-.6a10.1,10.1,0,0,1,2.1-.7l.9-.2a3.7,3.7,0,0,0,2.2-1.2c.3-.5.1-.6.5-1.1s.8-.7.9-1.1a1.1,1.1,0,0,0-.4-.9,1.1,1.1,0,0,1,.3-1.1,1.1,1.1,0,0,1,1.2-.3,1.1,1.1,0,0,1,.5,1.3,5.2,5.2,0,0,1,2.1-.7,7.9,7.9,0,0,1,2-.2c-.3-.4-.6-.9-.5-1.2s.4-.3.6-.6a1.9,1.9,0,0,0,.7-1.4,53.1,53.1,0,0,0,0-7.2,3.5,3.5,0,0,1-1-1.5,4.5,4.5,0,0,0-.3-1.6,1.6,1.6,0,0,0-.6-.9V21.8H65.7l-1.5-.6-1.1-.5h0l-2-1.2h0a4.2,4.2,0,0,1-1.4.3c-.4.1-.5-.1-1.1-.1a5.1,5.1,0,0,0-2,.2,3.3,3.3,0,0,0-1.4.9l-1.6-.5h0A1.8,1.8,0,0,1,52,20c-.3-.3-.4-.7-.6-.7s-.4,1-.8,1-.2,0-.9-.6h0a1.8,1.8,0,0,0-1.5-.3c-.6.1-.9.5-1.3.3s-.3-.2-.6-.6-.8-1-1.3-1.1-.3,0-1,0a4.9,4.9,0,0,1-2.1-.2l-.9-.2L39.7,17c-.8-.6-1-1.2-1.3-1.1s-.2.4-.5.6-.8,0-1.9-1V2.7" fill="none" stroke="#231f20" stroke-linecap="round" stroke-linejoin="round"/></svg>