<svg id="Layer_1" data-name="Layer 1" xmlns="http://www.w3.org/2000/svg" viewBox="0 0 72 72"><title>WI_black_outline</title><path d="M27.5,2.8c-.5-.2-.7.6-1,.6s-.2-.2-.2-.4-1.9,1.4-2.1,1.4a.8.8,0,0,1-.2-.5c0-.1-2.5,1.5-2.7,1.6a22.4,22.4,0,0,1-3.4,1.1c-2.5.6-3.3-1.8-4.7.6a2,2,0,0,0-.8-.4v8.7c-.6.7-1.8.9-2.1,1.6-2.5-.6-4.5,4.3-4.5,6.2H7.1l.7,1-.2-.3c.6-.2.4,3-.7,3.4V28c-.3.3-.4.6-.1.9a.8.8,0,0,1,0,1.2c-.1.2-.5.3-.5.6a16.6,16.6,0,0,0,.3,2.2,5.7,5.7,0,0,1,.1,1.3c0,.4-.6.6-.5,1s2.3,2.5,2.8,3,1.7-.3,2.4.4.2,1,.5,1.3,1.7.5,2.4,1,.9,1.8,1.6,3,2.6,1.8,3.4,2.7,3.2,2.6,3.1,4.4.6,3.8.7,5.8c2.1.8,1,1.3.3,2.7s0,2.6.5,4.1.7,2.5,2.6,3.2,2.4.6,2.6,2.4H60.2a11.4,11.4,0,0,1-.2-2.6c.2-.7.7-1.1.6-1.9s-1-1.2-1.2-1.9.2-.9.2-1.2a6.6,6.6,0,0,0-.1-1.4,19.4,19.4,0,0,0-.5-2,11.1,11.1,0,0,1,.8-3.6c.2-.7.2-1.5.4-2.2a7,7,0,0,0,.8-2c.2-1.5-.5-2.8-.2-4.2l.6-1a4.7,4.7,0,0,1,.6-.9c.1-.2.7-.1.9-.3s-.5-3.5-.4-3.4l-.3.2c-.5-.3,3.4-8.8,3.8-9.7s2.6-4.8,1.2-4.7-2.3,2.7-2.5,3-.9,2.6-1.9,3.4l-1,.8a1.3,1.3,0,0,0-.8.2v.4a7.5,7.5,0,0,0-.7,1.2l-.9,1.4-1,.6c-.6.7-.2.3-.4.3v.6c-1.6.6-.4-2.7-.2-3.2s1.1-2.6,1.9-3.3h1.2a2.8,2.8,0,0,1,.3-1.3l.5-.3c.1-.3-1.3-.9-1.4-1.1s-.3-1-.1-2.2-.6-.2-1.9-.9.3-1,.4-1.8a1.1,1.1,0,0,0,.4-.9l-.4-.6c.2-.8.2.1.2-.9s-.2-1.2.1-.7c-.6-1.1-1.6-.9-2.1-1.6s-.8.4-1.2-.2.1.1,0-.5.8-.7-.5-1.5a14.7,14.7,0,0,0-2.9-.5c-.4-.1-.7-.7-1-.7s-.9.5-1.2.5c-1.8-.1-3.7-1.4-5.5-2.1s-6.5-1.5-9.7-2.5c-.9-2.7-1.4-3-4.1-4.1a13.4,13.4,0,0,1-2.3-1.6c.4,1.2-.3,1.9-2.1,1.7C26.7,6.9,29.2,3.3,27.5,2.8Z" fill="none" stroke="#231f20" stroke-linecap="round" stroke-linejoin="round"/></svg>