<svg xmlns="http://www.w3.org/2000/svg" width="104" height="104" fill="none" viewBox="0 0 104 104"><circle cx="52" cy="52" r="50" stroke="#4F4F4F" stroke-width="3"/><path fill="#5360FF" d="M45.728 29.648V58.032C45.728 63.216 44.1707 67.3333 41.056 70.384C37.9627 73.4347 33.5787 74.96 27.904 74.96C25.0453 74.96 22.5707 74.5973 20.48 73.872C18.4107 73.1253 16.416 72.1013 14.496 70.8L18.496 64.336C20.0107 65.3813 21.4293 66.1173 22.752 66.544C24.0747 66.9493 25.5787 67.152 27.264 67.152C29.5467 67.152 31.4453 66.4267 32.96 64.976C34.496 63.504 35.264 61.232 35.264 58.16V37.328H21.632V29.648H45.728ZM64.647 74H54.151V29.648H64.647V74ZM64.967 50.32L77.095 29.648H88.103L75.559 49.552L89.319 74H77.159L64.967 50.32Z"/></svg>