<svg xmlns="http://www.w3.org/2000/svg" id="Dot" viewBox="0 0 914 914"><defs><style>.cls-1{fill:#00416a}</style></defs><title>JK logo2</title><g id="JK"><path d="M664.58,560.27l193.35-260.5h52.4C826.83,190.5,695.15,120,547,120,294.61,120,90,324.61,90,577c0,130.94,55.07,249,143.31,332.33l-.74-2q35.6-13.77,53.8-31.15a88,88,0,0,0,24.68-41.26q6.46-23.85,6.47-61.89V299.77h107.6V777.08q0,89.79-42.48,135.51Q353.5,943.94,307,966a454.9,454.9,0,0,0,240,68c146.08,0,276.15-68.54,359.81-175.21H862Zm-4.86,298.52H552.93v-559H659.72ZM940.05,343.72,780.26,553l167,244.69a457.56,457.56,0,0,0-7.23-454Z" class="cls-1" transform="translate(-90 -120)"/></g></svg>