<svg version="1.1" xmlns="http://www.w3.org/2000/svg" viewBox="0 0 654.5677582945955 412.8492987186927">
  <!-- svg-source:excalidraw -->
  <defs>
    <style>
      @font-face {
        font-family: "Virgil";
        src: url("https://excalidraw.com/FG_Virgil.woff2");
      }
      @font-face {
        font-family: "Cascadia";
        src: url("https://excalidraw.com/Cascadia.woff2");
      }
    </style>
  </defs>
  <rect x="0" y="0" width="654.5677582945955" height="412.8492987186927" fill="#ffffff"></rect><g transform="translate(15.567758294595421 81.36382992316967) rotate(0 17.5 19.5)"><path d="M11.853550925926342 1.1018437984349525 C15.294835377580288 -0.3465800388714404, 20.814069703450556 -0.3397903966908793, 24.34837640621617 1.170327793554545 C27.88268310898178 2.6804459837999692, 31.45125465448491 6.446033454128999, 33.059391142520006 10.1625529399075 C34.6675276305551 13.879072425686, 34.781969891813375 19.22769408286141, 33.99719533442675 23.469444708225545 C33.21242077704012 27.71119533358968, 31.283975354090124 33.01599348644225, 28.350743798200227 35.61305669209231 C25.41751224231033 38.210119897742366, 20.344761800383868 39.39826312068621, 16.397805999087367 39.05182394212589 C12.450850197790869 38.705384763565576, 7.229570143146331 36.5668979967984, 4.669008990421235 33.53442162073042 C2.108447837696138 30.501945244662437, 1.3316197793453457 25.008471569061214, 1.0344390827367889 20.85696568571799 C0.737258386128232 16.70545980237477, 0.41601860193743345 11.979571343554172, 2.885924810769893 8.62538632067109 C5.355831019602353 5.271201297788009, 12.987217563116733 2.0390883046534976, 15.853876335731547 0.7318555484194995 C18.72053510834636 -0.5753772078144987, 19.81092523350792 0.7181726567841343, 20.085877446458774 0.7819897832671003 M13.226822218502765 1.3392705241572003 C16.672180185705116 -0.4910188335879455, 21.670888234542776 -1.5655589496066005, 24.867995996380767 -0.0017843837626259074 C28.065103758218758 1.5619901820813487, 30.726702011961336 6.877588763171785, 32.40946878953071 10.721917919221047 C34.09223556710009 14.56624707527031, 35.56699176549083 18.98824167010674, 34.96459666179703 23.06419055253295 C34.36220155810323 27.14013943495916, 31.615554107663584 32.67246376417734, 28.795098167367904 35.17761121377832 C25.974642227072223 37.6827586633793, 21.640846124638088 38.27450418185932, 18.04186102002294 38.09507525013885 C14.442875915407788 37.915646318418375, 10.20922094867166 36.778260911470404, 7.201187539677001 34.10103762345548 C4.193154130682341 31.423814335440557, 0.7286973693487347 26.202111661348894, -0.006339433945015571 22.0317355220493 C-0.7413762372387659 17.861359382749704, 0.666760980058402 12.483277244758575, 2.7909667199144987 9.078780787657912 C4.915172459770595 5.674284330557249, 11.154124630059592 3.098705757493877, 12.738895005191566 1.6047567794453244 C14.32366538032354 0.11080780139677171, 12.487190203267915 0.1042499188192784, 12.299588970706338 0.11508691936659687" style="stroke: rgb(0, 0, 0); stroke-width: 1; fill: none;"></path></g><g><g transform="translate(34.56775829459542 119.36382992316967) rotate(0 -0.055592123046523056 22.47184050549751)"><path d="M0.5933695580810308 0.94193812943995 C0.602636765067776 8.212619919950765, -0.25193021831413115 36.74309842524429, -0.7045538041740655 43.68331871367991 M-0.5380200864840299 0.5924053293932228 C-0.720656661686177 7.9156170798807075, -0.3234193078645814 37.0032567354509, -0.5823448597360401 44.351275681601834" style="stroke: rgb(0, 0, 0); stroke-width: 1; fill: none;"></path></g></g><g><g transform="translate(31.56775829459542 139.36382992316967) rotate(0 10.115986049785278 -7.057390814810077)"><path d="M-0.2316713187843561 0.9937709603458644 C2.8822819894800578 -1.4660858081032833, 14.764096664016444 -11.58993126216034, 18.11802685521543 -14.125671895965933 M1.0254637570213525 -1.338984822286293 C4.664510839783276 -3.8072528214783716, 17.758232419195895 -13.112892994933452, 20.463643418354913 -15.108552589965985" style="stroke: rgb(0, 0, 0); stroke-width: 1; fill: none;"></path></g></g><g><g transform="translate(33.56775829459542 134.36382992316967) rotate(0 -12.289584031342542 -5.021647000061364)"><path d="M-1.011409768089652 -0.9609154555946589 C-5.011490866169333 -2.9422675265620155, -19.77080601118505 -9.3102992468824, -23.549957009777426 -10.774818966165185 M-1.116611270857975 0.8773444146942349 C-4.907785093439744 -0.7909120964972922, -19.684373235059905 -9.293762909866249, -23.567758294595407 -10.920638414816931" style="stroke: rgb(0, 0, 0); stroke-width: 1; fill: none;"></path></g></g><g><g transform="translate(32.56775829459542 158.36382992316967) rotate(0 -11.298226585923686 15.154470877363337)"><path d="M-0.057677396759390875 -0.14561897255480294 C-3.4245195116847755 4.751984797542294, -17.071677216514946 23.335748273755115, -20.573424192890524 28.24078498147428 M-0.7757758956681937 1.6417402006220074 C-4.630876968158409 7.001203358772521, -19.11154952521436 25.74953504433545, -22.538775775088 30.454560727281496" style="stroke: rgb(0, 0, 0); stroke-width: 1; fill: none;"></path></g></g><g><g transform="translate(35.56775829459542 160.36382992316967) rotate(0 7.703930655433794 9.935862373905252)"><path d="M-0.24459577538073063 1.117326596751809 C2.1567260529845953 4.523303619399666, 11.555291571840645 17.47946431972086, 14.27215180657804 20.639855328574775 M-0.07934255112893873 -1.584285545004532 C2.8144527552556244 1.988948944257572, 13.000425915224477 17.559353800760583, 15.652457086248322 21.456010292815044" style="stroke: rgb(0, 0, 0); stroke-width: 1; fill: none;"></path></g></g><g transform="translate(130.56775829459542 108.36382992316967) rotate(0 39 35.5)"><path d="M0.041163867339491844 -0.9789596553891897 C26.58843989837915 -0.7907831622473895, 52.341959444433456 0.5815400527603924, 77.85594070516527 -1.8862209673970938 M0.1166831674054265 0.41317382734268904 C16.80178248099983 0.5211275750584901, 32.65611416306347 0.5123689407296479, 78.8921508314088 -0.9872170658782125 M76.3173421677202 0.42377802170813084 C78.7726306725759 23.32957669487223, 77.24293498289771 45.008532487787306, 78.19682199321687 71.7944345716387 M78.75699682254344 0.9936209945008159 C76.70297430946492 21.479057000856848, 77.64494951560162 43.40101930573583, 77.52393196243793 70.71975884120911 M77.20828754268587 70.24797298945487 C49.76778673585504 70.63269942728803, 23.590047998726362 69.55457937447355, 1.9297530706971884 70.11047562398016 M78.53989337105304 70.19291410129517 C46.858087547868486 69.93107403894886, 18.37682512830942 69.61668376704678, -0.9589977143332362 71.22133142035455 M-0.740650886669755 71.04104956425726 C1.8374590453784911 50.72165944064036, -0.28262589600868526 31.58961100708693, -0.5659325663000345 1.8690921310335398 M-0.30486034136265516 71.08646208327264 C0.04523065232671797 52.72121894443407, 0.15358578705228865 35.57271450646221, -0.9782385407015681 -0.5525982053950429" style="stroke: rgb(0, 0, 0); stroke-width: 1; fill: none;"></path></g><g transform="translate(143.56775829459542 123.36382992316967) rotate(0 26 12.5)"><text x="0" y="18" font-family="Virgil" font-size="16px" fill="#000000" text-anchor="start">nanode</text></g><g><g transform="translate(270.5677582945954 11.363829923169675) rotate(0 0.19501027157997441 195.06081943617667)"><path d="M-1.1093211259692908 0.7599283363670111 C-0.741853599374493 65.98490459385017, 1.4717998021592698 326.4482500301053, 1.9007247719913722 391.48546879552305 M-1.5107042288314552 -1.3638299231696873 C-1.4680558519096425 63.85597246965082, -0.6555251631668458 324.2948487731845, -0.014221323980018408 389.68247016052715" style="stroke: rgb(0, 0, 0); stroke-width: 1; fill: none;"></path></g></g><g transform="translate(294.5677582945954 104.36382992316967) rotate(0 56.5 40)"><path d="M-1.4431038852781057 -0.06764625944197178 C38.96973202442751 1.296551714288071, 82.11708979997785 0.6202991703618318, 111.08589884079993 0.4229442533105612 M0.18065014760941267 0.1632752539590001 C33.032375135552144 0.30951932719908637, 67.57676045522095 1.7795764272566883, 112.55785477440804 -0.7921845493838191 M111.59768005646765 0.6140057500451803 C111.79749647192656 26.570493487641215, 112.15771755985915 54.4795626308769, 113.44903423823416 79.33171380124986 M113.76495015900582 0.9091253699734807 C113.68124414589256 27.74802636075765, 113.36586872842163 56.888850149698555, 112.87537297885865 80.12906248588115 M114.70201113261282 81.77938235364854 C79.94520051935687 82.40904127190821, 46.34881509225815 81.25201861689798, 1.949019992724061 81.14406878314912 M113.11970743816346 80.39774758834392 C71.1789295882918 79.32488308713772, 29.486415097489953 78.63111992047169, 0.8344116834923625 79.8863738598302 M-0.09831134043633938 78.41328579746187 C-0.7362824294716119 61.560458762571216, 1.0000334765762091 46.04485668800771, 0.37742104567587376 -1.5087041798979044 M-0.7968565793707967 80.93605719227344 C0.08579682763665919 50.52631602156907, -1.220940207876265 21.66074618417769, 0.49768451135605574 -0.2709523318335414" style="stroke: rgb(0, 0, 0); stroke-width: 1; fill: none;"></path></g><g transform="translate(304.5677582945954 130.86382992316967) rotate(0 46 12.5)"><text x="0" y="18" font-family="Virgil" font-size="16px" fill="#000000" text-anchor="start">Tailscale Pi</text></g><g transform="translate(513.5677582945955 82.36382992316967) rotate(0 42.5 24.5)"><path d="M1.9034850653260946 -0.8724116440862417 C25.45937809767202 0.06797851822338996, 52.18373388331384 1.7151525785680861, 84.63910121284425 -0.9453547950834036 M-0.16320990305393934 -0.30523031670600176 C20.536800032947212 -0.5104611407499761, 41.01038193702698 -0.14250030028633776, 85.22927646059543 -0.5959705980494618 M86.56819981895387 -1.4265392776578665 C84.68839012305253 14.183619725797328, 84.31502644936555 29.77170879822225, 86.43816006742418 50.4246146325022 M85.18070845026523 0.9776027528569102 C85.03091268853285 13.578086616192014, 84.80318441108801 26.56007358469069, 85.94341595191509 48.631414893083274 M84.58480322919786 47.03667660988867 C59.67605174286291 48.872681986028326, 33.02743781451136 49.369339536363256, 1.6652184184640646 50.758277678862214 M85.54425437469035 48.70292067807168 C51.441246676724404 50.199679259164256, 18.969293856993318 49.9821622706484, 0.6923502506688237 49.43895003478974 M-1.6556524578481913 49.000207209959626 C-1.600945581747219 33.30906129544601, -0.5736096399556845 14.412373770214614, 1.357812887057662 -1.014128839597106 M-0.718781846575439 48.681483956985176 C1.1469934692140669 36.16443555159494, -0.5456415007356554 24.76418077871203, 0.27225245255976915 -0.10186248738318682" style="stroke: rgb(0, 0, 0); stroke-width: 1; fill: none;"></path></g><g transform="translate(542.0677582945955 94.36382992316967) rotate(0 14 12.5)"><text x="0" y="18" font-family="Virgil" font-size="16px" fill="#000000" text-anchor="start">k3s</text></g><g transform="translate(520.0677582945955 151.86382992316967) rotate(0 42.5 24.5)"><path d="M-0.9494926873594522 -0.9615115281194448 C24.425540779251605 1.3264781405683608, 52.01981824915856 0.3443797399755567, 83.0508939679712 -1.2972720619291067 M-0.001644122414290905 0.6365669397637248 C22.58901847014204 1.6413522709626704, 46.146612405776985 0.5807852793950588, 84.78482417482883 -0.7522568376734853 M84.42042226158082 -0.7970112320035696 C84.28313081900589 13.720005643460901, 83.18161773125641 28.351671337895098, 84.48093426786363 49.178044045343995 M84.71135382074863 0.7602813569828868 C84.07318012551404 10.787052489910275, 85.12456561760045 20.908217353001238, 85.12390263099223 49.9039006261155 M86.03675711713731 50.30280133523047 C57.432705528568476 48.130312429601325, 30.38957274798303 48.880510018998756, 0.3585053142160177 50.41002252139151 M85.9654637100175 48.898746254853904 C63.29266517190263 48.29298990140669, 41.31928088702261 49.39303883085959, 0.9567602695897222 48.77497336547822 M-0.5844358745962381 49.69589736498892 C-0.8072387068998068 33.75772023862228, -1.7658646791707724 22.500720251537857, -1.1538562718778849 -1.796099817380309 M0.5519758285954595 49.42522213142365 C-0.23482184984721244 33.668763897847384, 0.7930631997343153 16.86698992177844, -0.4829298136755824 0.49496406596153975" style="stroke: rgb(0, 0, 0); stroke-width: 1; fill: none;"></path></g><g transform="translate(548.5677582945955 163.86382992316967) rotate(0 14 12.5)"><text x="0" y="18" font-family="Virgil" font-size="16px" fill="#000000" text-anchor="start">k3s</text></g><g transform="translate(521.0677582945955 217.86382992316967) rotate(0 42.5 24.5)"><path d="M-1.5045136753469706 -0.37962267361581326 C28.25355203868821 0.826503694569692, 57.45968255680054 -0.6141117806080729, 84.4708199556917 -0.04991880618035793 M0.08902202267199755 -0.8179436000064015 C17.614038279745728 0.5121591780800372, 36.850462198257446 0.9808842931408435, 84.5413829209283 0.09497612994164228 M86.807801252231 0.3742464426904917 C86.01682678292505 18.049491509888323, 85.80354878733866 36.51193178277463, 84.52325291000307 47.941218758001924 M85.70501126069576 -0.4014349551871419 C85.25767516658641 13.318267892394218, 85.88986071513034 27.195017058029777, 85.38046805281192 48.57337728422135 M84.54994673095644 48.47864999808371 C57.207520983647555 51.282770696515215, 25.002491095103323 50.509143594140184, -0.33829461969435215 47.18041273392737 M84.10195009130985 49.2328576175496 C65.28196925250813 48.418346183700486, 45.57580086030065 48.93483321587555, -0.10249404888600111 49.509766223840415 M0.9899281319230795 49.820856058970094 C-0.23618479575030504 29.352672824915498, 0.5809975663293153 12.328056866861878, 1.6131671126931906 1.1896968130022287 M-0.007972764782607555 48.146671178750694 C0.4823475258704275 34.56160713536664, -1.2228711766842753 19.605208062380548, -0.15918185096234083 0.13287219684571028" style="stroke: rgb(0, 0, 0); stroke-width: 1; fill: none;"></path></g><g transform="translate(549.5677582945955 229.86382992316967) rotate(0 14 12.5)"><text x="0" y="18" font-family="Virgil" font-size="16px" fill="#000000" text-anchor="start">k3s</text></g><g transform="translate(485.5677582945954 56.363829923169675) rotate(0 79.5 133)"><path d="M-0.6972267385572195 0.16810310445725918 C58.94768261620775 0.7423598232399673, 121.90218707900495 -1.2651038107741623, 157.73965486325324 1.8799040969461203 M0.2583999363705516 -0.7766714571043849 C53.75487041929737 -0.11173603325150894, 109.28634742535651 -0.8601981440093367, 158.3462464241311 0.6611392321065068 M160.43316334779436 1.3954669823030732 C157.1745189223349 76.46096780934815, 159.40070415366546 151.96200511776757, 160.19426803599993 266.01193055250855 M159.6983411072139 0.22857192234024293 C159.5473205904117 93.42103586998958, 158.76697961542806 186.05620902769027, 158.6717973244139 265.29076758263335 M160.7621201518923 265.3018519934267 C107.9015896773897 268.7924700721074, 57.549995131231825 267.9651249988843, -0.6320643778890371 267.6204149182886 M158.24694529455155 265.29631329793483 C119.20346497995777 266.89432828194464, 77.92637546584008 266.7941796935257, 0.9253431586548686 265.2396114291623 M0.619150686820302 267.0593571028055 C0.1278348587967135 204.7510872811199, 0.07698481742067115 144.64487890404112, 1.2482244553435422 0.8169494881278536 M0.42178438215398895 265.3908461552031 C-1.9640291010169344 187.24628039783437, -1.4396772039416987 109.53501436772889, -0.21929487118817453 -0.04904712437421791" style="stroke: rgb(0, 0, 0); stroke-width: 1; fill: none;"></path></g><g transform="translate(494.0677582945954 294.86382992316965) rotate(0 44.5 12.5)"><text x="0" y="18" font-family="Virgil" font-size="16px" fill="#000000" text-anchor="start">k3s cluster</text></g><g transform="translate(318.5677582945954 155.86382992316967) rotate(0 30 12.5)"><text x="0" y="18" font-family="Virgil" font-size="16px" fill="#000000" text-anchor="start">haproxy</text></g><g transform="translate(139.56775829459542 152.86382992316967) rotate(0 30 12.5)"><text x="0" y="18" font-family="Virgil" font-size="16px" fill="#000000" text-anchor="start">haproxy</text></g><g transform="translate(57.06775829459542 56.863829923169675) rotate(0 75.5 12.5)"><text x="0" y="18" font-family="Virgil" font-size="16px" fill="#000000" text-anchor="start">grafana.joshcorp.co</text></g><g><g transform="translate(66.56775829459542 145.36382992316967) rotate(0 28.976394400373096 1.5064546531578742)"><path d="M-0.9377670373767615 -0.5526612136512995 C8.745249195272724 0.12390500965217743, 48.96239075598618 2.5641822086026274, 58.890555838122964 3.2208620335906746 M0.8690312958229334 1.7496806688141078 C10.536065277603146 2.4570151813856014, 48.91130798721997 3.1778510949046663, 58.675564325796444 3.5655705199670047" style="stroke: rgb(0, 0, 0); stroke-width: 1; fill: none;"></path></g></g><g><g transform="translate(220.56775829459542 146.36382992316967) rotate(0 32.707839056476956 0.19589581969773917)"><path d="M-0.1970351312309504 0.11718035079538813 C10.824780776724216 0.1595399214575687, 54.64054447673261 -0.4442303067694109, 65.61271324418485 -0.11898995302617554 M-0.11607755293138333 0.2804424491990356 C10.630167513890191 0.2427296601204821, 53.96817356417886 0.649449811525022, 64.89746528665535 0.6068521404732019" style="stroke: rgb(0, 0, 0); stroke-width: 1; fill: none;"></path></g></g><g><g transform="translate(413.5677582945954 135.36382992316967) rotate(0 45.268813808755965 -14.313004055991769)"><path d="M0.85404453612864 0.7838034655898809 C15.694966728861134 -4.227697810903191, 74.78853841957947 -24.295281812921168, 89.97708748914302 -29.409811577573418 M-0.9704054030310363 -1.7592097111511977 C14.031984728422637 -6.551840977566317, 75.93522747809378 -24.287738268570976, 91.50803302054294 -28.738065372006968" style="stroke: rgb(0, 0, 0); stroke-width: 1; fill: none;"></path></g></g><g><g transform="translate(416.5677582945954 156.36382992316967) rotate(0 46.209033724293135 7.866905352845777)"><path d="M1.0751052763313054 -1.1932062115520239 C16.281931967164077 1.804653643940886, 76.31654434067507 14.045202059919633, 91.34296217225491 16.9270169172436 M1.5198487390112132 -0.08151918972842398 C16.740120015346136 2.6799274399348842, 75.68359880835129 13.001411258128162, 90.48719261924737 15.854923689411953" style="stroke: rgb(0, 0, 0); stroke-width: 1; fill: none;"></path></g></g><g><g transform="translate(416.5677582945954 174.36382992316967) rotate(0 45.69725836432076 29.4310802783817)"><path d="M0.15267641879618177 -0.5565882895141839 C15.346550424272817 9.402196739738185, 76.68119648632904 49.568924922371906, 91.92667686082423 59.418748846277595 M-0.532160132182762 1.638259405894205 C14.172561103549477 11.453696103397135, 74.76162342185465 47.70752967914256, 89.79978191916831 57.41302017341368" style="stroke: rgb(0, 0, 0); stroke-width: 1; fill: none;"></path></g></g><g transform="translate(135.06775829459542 304.36382992316965) rotate(0 41.5 16)"><text x="0" y="23" font-family="Virgil" font-size="20px" fill="#000000" text-anchor="start">Internet</text></g><g transform="translate(291.5677582945954 307.36382992316965) rotate(0 67 16)"><text x="0" y="23" font-family="Virgil" font-size="20px" fill="#000000" text-anchor="start">Home Network</text></g></svg>